<?xml version="1.0" encoding="UTF-8" standalone="no"?><!-- Generator: Gravit.io --><svg xmlns="http://www.w3.org/2000/svg" xmlns:xlink="http://www.w3.org/1999/xlink" style="isolation:isolate" viewBox="0 0 512 512" width="512pt" height="512pt"><defs><clipPath id="_clipPath_1yutzKb2U37RcjjRN5S9jG3MA3R1WNFt"><rect width="512" height="512"/></clipPath></defs><g clip-path="url(#_clipPath_1yutzKb2U37RcjjRN5S9jG3MA3R1WNFt)"><rect width="512" height="512" style="fill:rgb(25,25,25)" fill-opacity="0"/><g><path d=" M 260.66 108.923 L 418.67 200.15 C 421.06 201.53 423 204.89 423 207.65 L 423 255.004 C 423 260.523 419.119 262.763 414.34 260.004 L 198 135.1 L 243.34 108.923 C 248.119 106.163 255.881 106.163 260.66 108.923 Z " fill="rgb(0,115,200)"/><path d=" M 243 171.473 L 98.66 254.808 C 93.881 257.567 90 255.327 90 249.808 L 90 202.454 C 90 199.694 91.94 196.334 94.33 194.954 L 189 140.296 L 243 171.473 Z " fill="rgb(0,170,190)"/></g><g><linearGradient id="_lgradient_5" x1="0" y1="0.5" x2="1.0109415248915985" y2="0.4788307282048698" gradientTransform="matrix(297,0,0,171.473,117,215)" gradientUnits="userSpaceOnUse"><stop offset="0%" stop-opacity="1" style="stop-color:rgb(0,170,190)"/><stop offset="97.3913043478261%" stop-opacity="1" style="stop-color:rgb(0,145,255)"/></linearGradient><path d=" M 202.33 243.677 L 247.67 217.5 C 250.06 216.12 253.94 216.12 256.33 217.5 L 409.67 306.031 C 412.06 307.411 412.06 309.651 409.67 311.031 L 364.33 337.208 C 361.94 338.587 358.06 338.587 355.67 337.208 L 306 308.531 L 175.33 383.973 C 172.94 385.353 169.06 385.353 166.67 383.973 L 121.33 357.796 C 118.94 356.416 118.94 354.176 121.33 352.796 L 252 277.354 L 202.33 248.677 C 199.94 247.297 199.94 245.057 202.33 243.677 Z " fill="url(#_lgradient_5)"/><g><linearGradient id="_lgradient_6" x1="-0.9547325102880657" y1="0.5358176935752388" x2="0.9999999999999996" y2="0.4999999999999994" gradientTransform="matrix(162,0,0,124.708,252,215)" gradientUnits="userSpaceOnUse"><stop offset="0%" stop-opacity="1" style="stop-color:rgb(0,149,166)"/><stop offset="100%" stop-opacity="1" style="stop-color:rgb(0,115,200)"/></linearGradient><path d=" M 358.491 276.482 L 254.695 216.556 C 253.208 215.697 252 216.394 252 218.112 L 252 277.354 L 252 287.746 L 252 339.708 L 306 308.531 L 355.67 337.208 C 358.06 338.587 361.94 338.587 364.33 337.208 L 409.67 311.031 C 412.06 309.651 412.06 307.411 409.67 306.031 L 358.491 276.482 Z " fill="url(#_lgradient_6)"/><linearGradient id="_lgradient_7" x1="0.5555555555555555" y1="0.32197273321532865" x2="0.8123456790123453" y2="0.7313110193074452" gradientTransform="matrix(135,0,0,109.119,117,277.354)" gradientUnits="userSpaceOnUse"><stop offset="0%" stop-opacity="1" style="stop-color:rgb(255,255,255)"/><stop offset="100%" stop-opacity="1" style="stop-color:rgb(0,0,0)"/></linearGradient><path d=" M 252 277.354 L 252 339.708 L 171 386.473 L 117 355.296 L 252 277.354 Z " fill="url(#_lgradient_7)" fill-opacity="0.2" style="mix-blend-mode:overlay;"/><linearGradient id="_lgradient_8" x1="0.4567901234567894" y1="0.26976001327599697" x2="0.9999999999999999" y2="1.0000000000000004" gradientTransform="matrix(54,0,0,62.354,198,215)" gradientUnits="userSpaceOnUse"><stop offset="0%" stop-opacity="1" style="stop-color:rgb(255,255,255)"/><stop offset="100%" stop-opacity="1" style="stop-color:rgb(0,0,0)"/></linearGradient><path d=" M 252 215 L 198 246.177 L 252 277.354 L 252 215 Z " fill="url(#_lgradient_8)" fill-opacity="0.2" style="mix-blend-mode:overlay;"/></g><linearGradient id="_lgradient_9" x1="0.62962962962963" y1="0.4752041625016826" x2="0.06995884773662575" y2="1.0806200697769153" gradientTransform="matrix(162,0,0,124.708,252,215.238)" gradientUnits="userSpaceOnUse"><stop offset="0%" stop-opacity="1" style="stop-color:rgb(255,255,255)"/><stop offset="100%" stop-opacity="1" style="stop-color:rgb(0,0,0)"/></linearGradient><path d=" M 252 215.238 L 414 308.769 L 360 339.946 L 306 308.769 L 252 339.946 L 252 215.238 Z " fill="url(#_lgradient_9)" fill-opacity="0.2" style="mix-blend-mode:overlay;"/></g></g></svg>